<?xml version="1.0" standalone="no"?>
<!DOCTYPE svg PUBLIC "-//W3C//DTD SVG 20010904//EN"
 "http://www.w3.org/TR/2001/REC-SVG-20010904/DTD/svg10.dtd">
<svg version="1.0" xmlns="http://www.w3.org/2000/svg"
 width="512.000000pt" height="512.000000pt" viewBox="0 0 512.000000 512.000000"
 preserveAspectRatio="xMidYMid meet">
<metadata>
Created by potrace 1.14, written by Peter Selinger 2001-2017
</metadata>
<g transform="translate(0.000000,512.000000) scale(0.100000,-0.100000)"
fill="#000000" stroke="none">
<path d="M2399 5096 c-2 -2 -38 -7 -79 -10 -41 -3 -86 -7 -100 -9 -14 -2 -45
-7 -70 -11 -350 -56 -697 -192 -997 -393 -63 -41 -119 -81 -126 -87 -7 -7 -21
-18 -33 -26 -91 -64 -310 -279 -407 -400 -157 -195 -300 -441 -391 -670 -42
-108 -110 -333 -122 -409 -6 -34 -10 -58 -19 -101 -22 -114 -30 -217 -30 -415
0 -173 8 -324 19 -355 3 -8 7 -33 10 -55 38 -309 191 -698 394 -1005 414 -625
1111 -1043 1862 -1117 147 -15 487 -8 590 11 14 2 48 7 75 11 219 27 534 134
775 262 593 316 1052 871 1238 1498 58 197 82 316 100 495 14 143 5 569 -12
599 -2 3 -7 30 -10 60 -4 30 -14 86 -22 125 -146 660 -526 1213 -1094 1591
-129 85 -365 205 -511 259 -94 34 -329 100 -399 111 -19 3 -46 7 -60 10 -14 2
-44 7 -67 10 -23 3 -57 8 -75 11 -41 7 -433 15 -439 10z"/>
</g>
</svg>
